<?xml version="1.0" encoding="UTF-8"?>
<!DOCTYPE svg PUBLIC "-//W3C//DTD SVG 1.1//EN" "http://www.w3.org/Graphics/SVG/1.1/DTD/svg11.dtd">
<!-- Creator: CorelDRAW X5 -->
<svg xmlns="http://www.w3.org/2000/svg" xml:space="preserve" width="6.35mm" height="6.7081mm" shape-rendering="geometricPrecision" text-rendering="geometricPrecision" image-rendering="optimizeQuality" fill-rule="evenodd" clip-rule="evenodd"
viewBox="0 0 151 160"
 xmlns:xlink="http://www.w3.org/1999/xlink">
 <g id="Warstwa_x0020_1">
  <metadata id="CorelCorpID_0Corel-Layer"/>
  <g id="_197944560">
   <path fill="#0868AC" d="M28 25c-10,14 -8,32 -1,47l1 1 0 1 0 0 0 1c0,0 0,1 1,1l0 1c0,0 1,1 1,1l0 1c0,1 1,1 1,2l0 0 0 0c0,0 1,1 1,1l0 1c0,0 1,1 1,1l0 0c0,1 1,1 1,2l0 0 0 0c0,1 1,1 1,1l0 0c0,0 1,1 1,1l0 0c1,0 1,1 2,1l0 0 0 0c0,0 1,1 1,1l1 0c0,0 1,1 1,1l1 0c0,0 1,1 1,1l0 0 0 0c0,0 1,1 1,1l1 0c1,0 1,1 2,1l1 0c0,0 1,1 1,1l1 0 1 1 0 0 0 0c1,0 1,1 2,1l0 0c1,0 1,1 2,1l0 0c1,0 1,0 2,1l0 0c1,0 1,0 2,1l1 0c1,0 1,0 2,1 47,8 60,-28 60,-28 -11,15 -32,19 -51,14 -1,0 -1,0 -2,-1l-1 0c-1,0 -1,0 -2,-1l0 0c-1,0 -1,0 -2,-1l-1 0c-1,0 -1,-1 -2,-1l0 0c-1,0 -1,-1 -2,-1l0 0c0,0 -1,0 -1,-1l-1 0c-1,0 -1,-1 -2,-1l-1 0c-1,0 -1,-1 -2,-1l-1 0c0,0 -1,-1 -1,-1l0 0c0,0 -1,-1 -1,-1l-1 0c0,0 -1,-1 -1,-1l-1 0c-1,0 -1,-1 -2,-1l0 0c-1,0 -1,-1 -2,-1l0 0c0,0 -1,-1 -1,-1l0 0c0,0 -1,-1 -1,-1l0 0c0,-1 -1,-1 -1,-2l0 0c0,0 -1,-1 -1,-1l0 0c0,-1 -1,-1 -1,-2 -11,-14 -14,-34 -6,-51m22 -2c-7,10 -7,23 -1,34 1,2 2,4 3,5 1,1 2,3 4,4 1,1 1,1 2,2l0 0c1,1 1,1 2,1l0 0 0 0c1,1 1,1 2,2l0 0c1,0 1,1 2,1l0 0 1 1 0 0c0,0 1,1 1,1l0 0c0,0 1,0 1,1l0 0 1 0 0 0c1,0 1,1 2,1l0 0c1,0 1,0 2,1l1 0c0,0 1,0 1,0l1 0c1,0 1,0 2,1 36,6 44,-22 44,-22 -7,11 -22,16 -37,12 -1,0 -1,0 -2,-1l-1 0c0,0 -1,0 -1,0l-1 0c-1,0 -1,0 -2,-1l0 0c-1,0 -1,-1 -2,-1l-1 0 -1 0c0,0 -1,0 -1,-1l0 0c0,0 -1,-1 -1,-1l0 0 -1 -1c-1,0 -1,-1 -2,-1l0 0c-7,-5 -12,-13 -15,-21 -3,-9 -2,-18 3,-26m19 -1c-4,6 -5,14 -2,20 3,7 9,13 16,15l1 0 0 0c0,0 1,0 1,0 20,4 25,-10 27,-12 -5,7 -13,8 -22,6 -1,0 -2,0 -2,-1 -1,0 -2,-1 -3,-1 -2,-1 -3,-2 -5,-3 -9,-7 -14,-19 -8,-29m-3 4l0 0 0 0z"/>
   <path fill="#FEFEFE" d="M79 124l-6 0c0,0 -1,0 -1,1l-2 9 -2 9c0,0 0,1 -1,1l-4 0c-4,0 -3,-3 -3,-6l0 0 0 0 0 0 0 -1 0 -1 0 -1 1 -4 1 -4c0,0 0,-1 0,-1l-6 0c0,0 -1,0 -1,1l-1 6 -1 6 0 0 0 1c-1,6 -1,13 7,13l0 0 12 0c0,0 1,0 1,-1l3 -12 3 -12c0,0 0,-1 0,-1l0 0zm-59 0l-6 0c0,0 -1,0 -1,1l-1 3 -1 3c0,0 0,1 0,1l6 0c0,0 1,0 1,-1l1 -3 1 -3c0,0 0,-1 0,-1zm-2 8l-6 0c0,0 -1,0 -1,1l-1 4 -1 4 0 1 -1 4 -1 4c0,0 0,1 0,1 0,0 -1,3 -3,3l0 0 -2 0 0 0c0,0 -1,0 -1,1l-1 3 -1 3c0,0 0,1 0,1 1,0 4,0 5,0 5,0 7,-3 9,-10l2 -9 2 -8c0,0 0,-1 0,-1l0 0zm113 -2l0 -1 0 -1 0 -1c0,-2 -2,-3 -5,-3l-5 0 -5 0 -5 0c0,0 -1,0 -1,1l0 1 0 1 0 0 -2 11 -2 10c0,0 0,1 0,1 0,0 1,0 1,0l5 0c0,0 1,0 1,0 0,0 0,-1 0,-1l1 -4 1 -4 0 0 0 -1 1 -5 1 -4c0,0 0,-1 1,-1l15 0c0,0 1,0 0,-1l0 0zm19 -9l-1 0 -5 0c0,0 -1,0 -1,0l-10 15c0,0 0,0 0,0l-1 -3c0,0 0,-1 -1,-1l-7 0c0,0 0,0 0,1l3 10c0,0 0,1 0,1l-1 5c0,0 0,1 0,1l7 0c0,0 1,0 1,-1l1 -5c0,0 0,-1 0,-1l17 -22c0,0 0,0 0,0l-2 0 0 0zm-53 13l0 0c0,0 0,1 -1,1l-8 0c0,0 0,0 0,0l0 0 0 0 0 0 0 0c1,-2 2,-4 5,-4 3,0 4,2 4,4l0 0zm-2 -10c-11,0 -13,7 -15,13 -1,7 -1,13 10,13l1 0 0 0 0 0 1 0 0 0c3,0 6,0 7,0 0,0 1,0 1,-1l0 -2 0 0 1 -3c0,0 0,-1 0,-1l-10 0c-4,0 -5,-1 -5,-4l16 0 0 0 0 0c0,0 0,0 1,0l0 0 0 0c2,-9 2,-15 -8,-15l0 0zm-51 10l0 1 0 0 -1 4 -1 4c0,0 0,1 -1,1l-6 0c-5,0 -6,-4 -5,-9 1,-6 3,-9 8,-10 7,0 8,4 6,9zm4 9c0,0 3,-7 4,-12 1,-6 -2,-14 -13,-14 -11,0 -16,8 -17,16 -2,9 1,16 11,16l9 0 8 0c0,0 1,0 1,-1l1 -5c0,0 0,-1 0,-1l-1 0 -1 0c0,0 0,0 0,0l0 0 0 0zm54 -5c0,0 0,0 0,0 0,0 0,0 0,0 0,0 0,0 0,0 0,0 0,0 0,0z"/>
  </g>
 </g>
</svg>
